<svg width="60" height="29" viewBox="0 0 60 29" fill="none" xmlns="http://www.w3.org/2000/svg">
<path d="M11.7368 12.7732L18.3122 12.6874C17.701 14.7947 15.165 16.5024 10.155 16.7852C3.51384 17.1611 0.00170898 14.7801 0.00170898 11.5964C0.00170898 8.41265 3.51567 6.0317 10.155 6.40754C15.165 6.69216 17.701 8.39806 18.3122 10.5053L11.7368 10.4196C11.5817 9.71351 11.1803 9.2282 10.155 9.20083C8.58044 9.15886 8.41623 10.2481 8.41623 11.5964C8.41623 12.9447 8.58044 14.0321 10.155 13.9919C11.1803 13.9646 11.5817 13.4792 11.7368 12.7732Z" fill="black"/>
<path d="M29.0272 13.4975V15.7161L19.2681 16.2689V6.92389L24.6284 7.22675V13.6124L29.0272 13.4975Z" fill="black"/>
<path d="M38.8614 13.2494C38.2064 15.0957 36.3217 16.1959 33.2694 15.3056C29.8995 14.3203 28.7811 12.0817 29.5401 9.9434C30.2991 7.80511 32.5761 6.77063 35.8145 8.12987C38.7446 9.35957 39.5164 11.403 38.8614 13.2494ZM35.3949 12.0197C35.7142 11.1165 35.8966 10.3557 35.1285 10.062C34.3403 9.75913 33.9919 10.4798 33.6635 11.4066C33.335 12.3335 33.1508 13.1125 33.9535 13.3734C34.7381 13.627 35.0756 12.9228 35.3949 12.0197Z" fill="#FF9124"/>
<path d="M46.7505 12.7148C46.7505 14.4243 45.1686 14.7984 43.5904 14.8878L43.0942 14.9206C41.0927 15.0337 39.4854 14.5338 39.4854 12.8188V12.7641L42.5888 12.7057V12.7568C42.5888 12.9702 42.8114 13.1363 43.0194 13.1308L43.5485 13.118C43.7674 13.1125 43.9791 12.921 43.9791 12.6984C43.9791 12.4758 43.8221 12.297 43.4408 12.3025C43.4408 12.3025 42.9993 12.3079 42.5158 12.3134C41.1201 12.3298 39.5966 12.1273 39.5966 10.2627C39.5966 8.31779 41.7076 8.19373 43.0924 8.27218C43.2401 8.2813 43.5886 8.30137 43.5886 8.30137C45.061 8.3853 46.5735 8.96366 46.5735 10.509V10.5564L43.8824 10.5053V10.4543C43.8824 10.2444 43.6762 10.0748 43.4737 10.0693L43.1015 10.0602C42.8807 10.0547 42.691 10.166 42.691 10.3795C42.691 10.5929 42.8077 10.7663 43.169 10.7717C43.169 10.7717 43.6543 10.779 43.9499 10.7827C45.5737 10.8082 46.7505 11.0053 46.7505 12.7148Z" fill="black"/>
<path d="M47.2266 14.6852V8.50754L49.6221 8.64255V14.5502L47.2266 14.6852Z" fill="black"/>
<path d="M54.9206 8.94359V14.251L53.3388 14.3404L52.3663 12.5743V14.397L50.2207 14.5192V8.67722L52.0087 8.77939L52.9958 10.6349V8.83595L54.9206 8.94359Z" fill="black"/>
<path d="M57.5187 11.288L59.4818 11.3026V13.9919L59.2209 14.0065C59.2209 14.0065 59.1005 13.6945 58.7666 13.711C58.4181 13.7274 58.1974 14.0649 57.4858 14.105C55.9897 14.189 55.2417 13.0523 55.2417 11.5964C55.2417 10.1404 55.9897 9.00378 57.4858 9.08771C58.69 9.15521 59.3267 9.98171 59.4836 11.0436L57.858 11.0217C57.8215 10.6787 57.7266 10.4451 57.4858 10.4378C57.1209 10.4287 57.0826 10.9505 57.0826 11.5964C57.0826 12.3061 57.1483 12.7622 57.5132 12.7531C57.7412 12.7476 57.8471 12.4849 57.8562 12.2459L57.5187 12.2514V11.288Z" fill="black"/>
<path d="M1.6986 22.952L2.95201 22.9721C2.82247 24.1981 2.3171 25.0775 1.43405 25.0155C0.450649 24.9461 0 23.7566 0 22.328C0 20.8994 0.450649 19.7099 1.43405 19.6405C2.31892 19.5785 2.8243 20.4561 2.95201 21.684L1.6986 21.704C1.67305 21.3318 1.60372 21.0819 1.43405 21.0874C1.18409 21.0965 1.15855 21.6475 1.15855 22.328C1.15855 23.0085 1.18409 23.5595 1.43405 23.5687C1.60372 23.5741 1.67305 23.3242 1.6986 22.952Z" fill="black"/>
<path d="M4.46101 20.987V21.6785L5.76917 21.6584V22.9483L4.46101 22.9283V23.6653L5.84215 23.711V25.3275L3.16016 25.1377V19.5165L5.84215 19.3267V20.9432L4.46101 20.987Z" fill="black"/>
<path d="M8.26679 25.4989L7.69208 22.9702V25.4588L6.1814 25.3512V19.3012L8.81596 19.1132C9.41074 19.0713 9.90517 19.885 9.90517 20.9341C9.90517 21.7496 9.60413 22.4448 9.18815 22.7075C9.38155 22.8352 9.5421 23.0961 9.62238 23.4427L10.1405 25.6321L8.26679 25.4989ZM7.69208 20.8812V21.6037L8.03507 21.5982C8.14819 21.5964 8.24125 21.4303 8.24125 21.2296C8.24125 21.0271 8.14819 20.8666 8.03507 20.8702L7.69208 20.8812Z" fill="black"/>
<path d="M12.2295 20.7334V21.5562L14.0923 21.5271V23.0724L12.2295 23.045V23.9226L14.1981 23.9865V25.9222L10.3977 25.6522V19.0038L14.1981 18.7338V20.6695L12.2295 20.7334Z" fill="black"/>
<path d="M22.1165 18.1718V26.4842L19.4856 26.2981V23.6526L18.9492 26.2616L17.3801 26.1503L16.8838 23.5924V26.1157L14.6926 25.9606V18.7028L17.4002 18.5112L18.1537 22.2806L18.9291 18.4017L22.1165 18.1718Z" fill="black"/>
<path d="M30.8648 22.328C30.8648 24.9662 29.3797 27.0005 26.466 26.7925C23.7986 26.6028 22.6072 24.6415 22.6072 22.328C22.6072 20.0128 23.7986 18.0533 26.466 17.8635C29.3797 17.6555 30.8648 19.6898 30.8648 22.328ZM27.2414 22.328C27.2414 21.175 27.1684 20.2445 26.4641 20.2682C25.7745 20.2901 25.7051 21.2041 25.7051 22.328C25.7051 23.4519 25.7745 24.366 26.4641 24.3879C27.1702 24.4116 27.2414 23.4793 27.2414 22.328Z" fill="black"/>
<path d="M41.3247 16.8071V27.8471L37.5005 27.5752L35.4389 24.1069V27.4293L31.5144 27.1501V17.5041L34.731 17.276L36.7507 20.5163V17.1337L41.3247 16.8071Z" fill="black"/>
<path d="M53.0067 23.0177V28.6754L47.0096 28.2503V22.9721L41.7241 16.7798L47.838 16.3456L49.9051 18.9965L52.0762 16.0445L60 15.4826L53.0067 23.0177Z" fill="black"/>
<path d="M13.0486 3.69823L12.286 0.755337V3.711L11.8372 3.71648V0L12.556 0.00729783L13.3095 2.95931L14.0302 0.0218935L14.7326 0.0291919V3.68728L14.2564 3.69276V0.742565L13.5376 3.69458L13.0486 3.69823Z" fill="black"/>
<path d="M16.8199 2.01423L15.7416 2.01606V3.30962L17.0644 3.29867V3.66539L15.2454 3.68364V0.034668L17.0644 0.0529128V0.419634L15.7416 0.408687V1.65116L16.8199 1.65299V2.01423Z" fill="black"/>
<path d="M19.2592 0.308335C19.4198 0.463416 19.5 0.682355 19.5 0.963325V2.75862C19.5 3.03594 19.4198 3.25305 19.2592 3.40996C19.0987 3.56686 18.8542 3.64532 18.5276 3.64897L17.5132 3.65991V0.0583801L18.5276 0.0693271C18.8542 0.0711516 19.0987 0.151429 19.2592 0.308335ZM19.0312 2.77686V0.939606C19.0312 0.603901 18.8597 0.434224 18.5167 0.430575L17.9985 0.426926V3.28954L18.5221 3.28589C18.8615 3.28225 19.0312 3.11257 19.0312 2.77686Z" fill="black"/>
<path d="M21.5599 0.301055C21.7168 0.459785 21.7934 0.676899 21.7934 0.950572V1.26621L21.3537 1.26438V0.926854C21.3537 0.5875 21.1913 0.417822 20.8647 0.414173C20.7005 0.412349 20.5783 0.456136 20.4962 0.545536C20.4141 0.634936 20.3721 0.759 20.3721 0.92138V2.7933C20.3721 2.95568 20.4141 3.08157 20.4962 3.16914C20.5783 3.25854 20.7005 3.30233 20.8647 3.30051C21.1913 3.29868 21.3537 3.12718 21.3537 2.78783V2.32988L21.7934 2.32806V2.76411C21.7934 3.03778 21.7149 3.2549 21.5599 3.41363C21.4029 3.57236 21.1676 3.65446 20.8538 3.65811C20.5418 3.66176 20.3064 3.58513 20.1477 3.4264C19.989 3.26949 19.9087 3.05055 19.9087 2.77323V0.939624C19.9087 0.662303 19.989 0.445189 20.1477 0.286459C20.3064 0.129553 20.5418 0.0529254 20.8538 0.0547498C21.1676 0.0602233 21.4029 0.1405 21.5599 0.301055Z" fill="black"/>
<path d="M22.4156 0.308355C22.5744 0.153273 22.8079 0.0766451 23.1163 0.0802941C23.4228 0.0839431 23.6545 0.164221 23.8132 0.321126C23.9719 0.478032 24.0504 0.691496 24.0504 0.96152V2.75499C24.0504 3.02501 23.9719 3.2403 23.8132 3.39538C23.6545 3.55229 23.4228 3.63257 23.1163 3.63622C22.8116 3.63986 22.5798 3.56324 22.4193 3.40815C22.2587 3.25307 22.1785 3.03778 22.1785 2.76411V0.950574C22.1785 0.678725 22.2569 0.463436 22.4156 0.308355ZM22.7532 3.15637C22.8353 3.24213 22.9557 3.28409 23.1163 3.28226C23.4392 3.28044 23.5997 3.11076 23.5997 2.77688V0.939626C23.5997 0.780896 23.5596 0.656831 23.4811 0.569256C23.4009 0.481681 23.2805 0.436069 23.1181 0.434245C22.9575 0.43242 22.8371 0.476207 22.755 0.563783C22.6729 0.651358 22.6328 0.775423 22.6328 0.934153V2.78236C22.6309 2.94656 22.6711 3.07062 22.7532 3.15637Z" fill="black"/>
<path d="M25.6558 3.57599L25.2471 3.57964L26.0061 0.144135L26.641 0.151433L27.3872 3.55957L26.953 3.56322L26.8015 2.87721L25.8072 2.88269L25.6558 3.57599ZM26.7413 2.55063L26.298 0.576538L25.8638 2.55428L26.7413 2.55063Z" fill="black"/>
<path d="M28.7301 3.53953L28.0952 0.852063V3.55048L27.7212 3.55413V0.160583L28.3214 0.166057L28.9491 2.86264L29.5512 0.178828L30.1386 0.184302V3.52858L29.7409 3.53223V0.839291L29.1406 3.53588L28.7301 3.53953Z" fill="black"/>
<path d="M32.0013 0.416002C32.1363 0.556487 32.2038 0.75718 32.2038 1.01443V1.41035C32.2038 1.94127 31.9192 2.20765 31.3463 2.20947H30.9814V3.52127L30.5654 3.52492V0.191589L31.3773 0.200712C31.6601 0.202536 31.8681 0.273692 32.0013 0.416002ZM31.6893 1.77342C31.7623 1.70409 31.8006 1.59097 31.8006 1.43224V0.992539C31.8006 0.837457 31.7678 0.72434 31.7003 0.649536C31.6328 0.574732 31.5269 0.536417 31.3792 0.536417L30.9814 0.532768V1.87741H31.3463C31.5014 1.87741 31.6163 1.84275 31.6893 1.77342Z" fill="black"/>
<path d="M33.8095 1.99783H32.9282V3.16733L34.0101 3.15821V3.49026L32.5232 3.50486V0.209839L34.0101 0.224436V0.556491L32.9282 0.547369V1.66943L33.8095 1.67125V1.99783Z" fill="black"/>
<path d="M35.7616 0.428757C35.8875 0.552822 35.9495 0.737095 35.9495 0.983401V1.24613C35.9495 1.42493 35.9149 1.56906 35.8437 1.67853C35.7744 1.78982 35.6631 1.86645 35.5135 1.90841C35.6668 1.9522 35.7799 2.02883 35.8492 2.14195C35.9185 2.25324 35.955 2.40103 35.955 2.58165V3.08338C35.955 3.17278 35.9587 3.24759 35.9678 3.30597C35.9769 3.36618 35.9952 3.42091 36.0244 3.46835L35.6284 3.472C35.6047 3.42274 35.5883 3.37165 35.5792 3.31692C35.5682 3.26401 35.5646 3.18373 35.5646 3.07973V2.5707C35.5646 2.39555 35.5226 2.27149 35.4369 2.19851C35.3511 2.12553 35.2234 2.09086 35.0519 2.09086H34.7746V3.4793L34.3787 3.48294V0.229889L35.1687 0.237186C35.4387 0.240835 35.6376 0.304692 35.7616 0.428757ZM35.4405 1.66941C35.5226 1.60555 35.5628 1.48878 35.5628 1.32275V1.01259C35.5628 0.864809 35.5317 0.753516 35.4679 0.678712C35.404 0.603908 35.3 0.565593 35.1559 0.565593L34.7709 0.561945V1.76428H35.0647C35.2343 1.7661 35.3584 1.73326 35.4405 1.66941Z" fill="black"/>
<path d="M36.6157 3.4647L36.2581 3.46835L36.9222 0.255432L37.4768 0.260906L38.13 3.44828L37.7505 3.45193L37.6191 2.80971L36.7489 2.81519L36.6157 3.4647ZM37.5662 2.50685L37.1794 0.660468L36.7999 2.50867L37.5662 2.50685Z" fill="black"/>
<path d="M40.4543 0.470734C40.5783 0.611219 40.6404 0.804613 40.6404 1.04909V1.31729L40.2919 1.31547V1.02903C40.2919 0.727986 40.1624 0.574729 39.9033 0.572904C39.7737 0.57108 39.6752 0.611219 39.6114 0.689672C39.5457 0.768125 39.5128 0.881242 39.5128 1.02538V2.69296C39.5128 2.83709 39.5457 2.94838 39.6114 3.02866C39.677 3.10711 39.7737 3.14725 39.9033 3.14543C40.1624 3.1436 40.2919 2.99217 40.2919 2.68931V2.06168H39.9507V1.74787H40.6404V2.66924C40.6404 2.91372 40.5783 3.10711 40.4543 3.2476C40.3302 3.38991 40.1441 3.46106 39.8942 3.46471C39.646 3.46654 39.4599 3.39903 39.334 3.25855C39.2081 3.11806 39.1443 2.92467 39.1443 2.67836V1.04362C39.1443 0.797316 39.2081 0.603921 39.334 0.463435C39.4599 0.32295 39.646 0.255444 39.8942 0.257269C40.1423 0.257269 40.3302 0.328424 40.4543 0.470734Z" fill="black"/>
<path d="M41.226 3.41725L40.8884 3.4209L41.5142 0.302856L42.0379 0.30833L42.6545 3.40448L42.2969 3.40813L42.1729 2.78598L41.3518 2.79145L41.226 3.41725ZM42.12 2.48676L41.7551 0.695121L41.3975 2.49041L42.12 2.48676Z" fill="black"/>
<path d="M43.7638 3.38808L43.2384 0.945098V3.39903L42.9282 3.40268V0.317474L43.4245 0.322948L43.9445 2.77506L44.4426 0.333895L44.9279 0.339368V3.38261L44.5976 3.38626V0.930501L44.1014 3.38443L43.7638 3.38808Z" fill="black"/>
<path d="M46.3747 1.9869H45.6267V3.06517L46.5462 3.05787V3.36439L45.2837 3.37716V0.341217L46.5462 0.353989V0.658678L45.6267 0.651379V1.68586H46.3747V1.9869Z" fill="black"/>
<path d="M47.9895 0.536378C48.1008 0.669566 48.1574 0.852014 48.1574 1.08372V1.164L47.8418 1.16218V1.06548C47.8418 0.780859 47.7286 0.638549 47.4988 0.636725C47.2689 0.6349 47.1539 0.775385 47.1539 1.05818C47.1539 1.20049 47.1922 1.32091 47.2707 1.42125C47.3473 1.51978 47.4641 1.62924 47.6192 1.74966C47.7414 1.85183 47.8381 1.93941 47.9074 2.01056C47.9768 2.08172 48.037 2.16929 48.0862 2.27511C48.1355 2.37911 48.161 2.49952 48.161 2.63636C48.161 2.86807 48.1045 3.05234 47.9914 3.18371C47.8782 3.31689 47.7086 3.3844 47.486 3.38622C47.2616 3.38805 47.0937 3.32419 46.9806 3.19283C46.8675 3.06146 46.8091 2.87719 46.8091 2.64366V2.47216L47.1247 2.47033V2.65825C47.1247 2.79509 47.1539 2.90091 47.2123 2.97389C47.2707 3.04687 47.3601 3.08336 47.4769 3.08336C47.5936 3.08153 47.6812 3.04505 47.7396 2.97024C47.798 2.89544 47.8272 2.79144 47.8272 2.6546C47.8272 2.51594 47.7888 2.39735 47.714 2.30066C47.6392 2.20396 47.5243 2.09449 47.3692 1.97225C47.2524 1.87555 47.1557 1.7898 47.0828 1.71682C47.0098 1.64384 46.9478 1.55444 46.8967 1.4468C46.8456 1.33915 46.82 1.21691 46.82 1.08007C46.82 0.842891 46.8766 0.658619 46.9879 0.527256C47.101 0.397717 47.267 0.332036 47.4878 0.335685C47.7104 0.335685 47.8764 0.403191 47.9895 0.536378Z" fill="black"/>
</svg>
