<svg width="113" height="74" viewBox="0 0 113 74" fill="none" xmlns="http://www.w3.org/2000/svg">
<path d="M112.066 13.8423H103.604C103.863 12.3874 104.325 10.9487 104.473 9.47058C104.665 7.5654 104.606 6.15215 102.221 6.2621C99.7766 6.37785 99.3876 8.43697 98.8978 10.3595C97.7459 14.8736 96.6152 19.868 95.734 24.4388C95.536 25.4655 95.0239 27.7549 95.7739 28.5791C96.4875 29.365 98.8005 29.1346 99.704 28.7087C100.978 28.1068 101.637 26.5431 101.627 25.2132H98.7806L100.125 18.6342H111.275C110.455 21.9827 109.902 25.4041 109.086 28.755C107.694 34.4728 105.644 38.4568 98.981 38.8249C95.2981 39.0297 91.5719 38.6814 87.9089 38.5864C85.0509 38.5124 82.1813 38.6478 79.3245 38.5864L79.6408 32.4751H73.6648L71.5685 38.5864H57.1006L60.7331 19.6331L50.8093 33.4068L50.6921 33.1394L48.3591 19.8009L28.4741 0.304668H52.4369L54.7289 18.7152L64.812 0.304668H72.9184L67.4216 28.6184L79.0081 0.304668H87.1543L87.3886 24.3624C87.623 24.3995 87.5164 24.3046 87.5492 24.1749C88.6975 19.6342 89.3385 14.8539 90.4329 10.2854C91.75 4.78403 93.4561 0.80932 99.8481 0.150726C102.792 -0.151371 107.391 -0.116647 109.984 1.37416C114.534 3.99696 112.777 9.72175 112.066 13.8423ZM79.9596 26.4516L80.4728 13.2995L75.7658 26.4516H79.9596ZM82.3324 35.966C83.066 34.3154 85.4072 33.8281 85.9134 32.004C86.395 30.2678 85.5618 29.4576 83.7913 29.5432C82.5539 29.6046 81.8789 30.1104 81.5005 31.247C81.436 31.4403 81.2345 32.1556 81.2392 32.3095C81.2392 32.3825 81.2942 32.4855 81.3434 32.4855H82.9617C83.0788 32.0653 83.0788 31.1069 83.5347 30.9194C83.9905 30.7319 84.3033 30.8546 84.2975 31.3546C84.2811 32.7829 81.968 33.7159 81.156 34.7032C80.522 35.474 80.3357 36.5609 80.1928 37.5135H84.7006L85.017 35.966H82.3324ZM88.7994 29.5664C87.173 29.7411 86.9598 30.8396 86.641 32.1753C86.4067 33.1522 85.8641 35.4914 85.9696 36.3919C86.109 37.5887 87.3757 37.6211 88.3729 37.5054C89.1732 37.4116 89.6326 36.944 89.9384 36.2507C90.3145 35.3976 91.1102 31.6209 91.0305 30.7447C90.9215 29.5756 89.7896 29.4599 88.7971 29.5664H88.7994ZM92.7718 35.966C92.7577 35.7275 92.9053 35.5238 93.046 35.3456C94.0185 34.1152 96.1781 33.5087 96.4008 31.6648C96.6011 30.0016 95.7844 29.4506 94.1521 29.5432C92.3042 29.6474 91.832 30.8789 91.6644 32.4855H93.285C93.5334 32.122 93.4737 31.034 94.0138 30.8766C94.6243 30.6984 94.7298 31.0896 94.6618 31.5896C94.4884 32.8825 92.2269 33.8096 91.4406 34.8583C90.8946 35.5863 90.7188 36.6269 90.6356 37.5135H95.0251C95.2676 37.0725 95.3215 36.4718 95.3766 35.966H92.7718ZM101.866 29.6231H97.7518L96.8144 34.1661C96.7863 34.2286 96.8894 34.342 96.9187 34.342H98.3424C98.5158 34.342 98.4033 33.2112 99.254 33.3663C99.6677 33.4427 99.5903 33.7135 99.5587 34.0608C99.5329 34.3316 99.1685 36.0771 99.0537 36.1963C98.8849 36.3711 98.3178 36.4208 98.1842 36.1963C98.0354 35.9497 98.2369 35.5377 98.224 35.2703H96.6843C95.8547 37.2924 97.1636 37.679 98.9763 37.5123C100.789 37.3456 100.989 35.606 101.209 34.1256C101.489 32.2308 100.903 31.9716 99.0173 32.2528C99.0841 31.9808 99.0806 31.1463 99.3689 31.0954C99.7063 31.0329 101.545 31.1752 101.622 31.0954L101.866 29.6231Z" fill="white"/>
<path d="M0.236699 38.5969L19.537 19.5278L0 0.303528H27.0082L46.6601 19.5278L27.2449 38.5969H0.236699Z" fill="#FF9124"/>
<path d="M44.2884 38.5969H28.9464L47.8471 20.0301L44.2884 38.5969Z" fill="white"/>
<path d="M88.8733 30.8743C89.2928 30.7886 89.3783 31.0074 89.3736 31.3627C89.3677 31.8547 88.6471 35.4601 88.4584 35.8884C88.3881 36.0493 88.3284 36.1604 88.1397 36.1974C87.5257 36.3132 87.5949 35.9347 87.6382 35.4729C87.7308 34.4948 88.1198 32.8408 88.3647 31.8512C88.4456 31.5248 88.4795 30.9553 88.8733 30.8743Z" fill="white"/>
<path d="M91.8988 73.0984L100.98 63.2345L91.7406 53.2943H103.722L112.995 63.2345L112.818 63.5077L103.88 73.0984H91.8988Z" fill="#FF9124"/>
<path d="M14.1574 62.8884L15.1007 63.3942C18.9242 66.7405 15.2085 72.8136 10.6268 73.0104C7.62475 73.206 4.59337 73.0474 1.58191 73.0984L5.92802 53.3301C8.33602 53.3545 10.8495 53.1762 13.2504 53.2908C16.5595 53.4482 18.6183 54.7573 18.2598 58.2748C18.0512 60.3085 16.1705 62.3861 14.1574 62.8884ZM6.16824 62.0389H11.8232C12.0142 62.0389 12.8005 61.8236 13.0325 61.7507C14.7902 61.2032 16.0697 59.8432 16.1342 57.975C16.2115 55.7238 14.5581 55.2504 12.6189 55.1508C10.9889 55.0663 9.2957 55.1902 7.66928 55.189L7.5521 55.461L6.16824 62.0389ZM4.19145 71.2418C7.35525 71.0717 12.9329 72.2187 14.2136 68.3192C14.9167 66.1571 14.3472 64.3468 11.8935 63.9788C9.98119 63.6929 7.71967 63.9788 5.76983 63.9278L4.19145 71.2418Z" fill="white"/>
<path d="M68.0145 73.0984L72.2962 53.3058C72.6032 53.3267 74.3363 53.2225 74.4288 53.344L81.4595 69.0762L84.9807 53.2954H86.9973L82.718 73.0879H80.5197L73.5875 57.2389L70.1472 73.096L68.0145 73.0984Z" fill="white"/>
<path d="M59.9316 53.0859C65.1788 52.6924 67.2892 55.4274 66.4748 60.3362C65.9721 63.3653 65.037 68.5542 62.9934 70.8563C59.8133 74.4445 51.4655 74.4942 51.0859 68.8088C50.9312 66.4696 51.9436 62.3884 52.567 60.0376C53.5665 56.2654 55.6757 53.4042 59.9316 53.0859ZM59.4559 55.0177C56.3729 55.358 55.2679 57.9935 54.6082 60.5654C54.1079 62.5203 53.0509 66.5437 53.2267 68.4164C53.4821 71.1376 56.2909 71.7291 58.6169 71.2973C61.3553 70.7904 62.4392 68.5345 63.0696 66.1374C63.5571 64.2785 64.2027 61.6962 64.4429 59.8223C64.9163 56.1775 63.1423 54.6103 59.4559 55.0177Z" fill="white"/>
<path d="M36.2219 53.2942C36.1903 53.5547 35.8856 55.2064 35.7743 55.2318L25.7135 55.2388L24.2136 61.937C24.1843 61.9995 24.2921 62.1129 24.319 62.1129H32.8214L32.5039 63.9648L23.8152 63.9753L22.2239 71.2371H32.3469L31.9508 73.0891H19.6929L23.9628 53.285L36.2219 53.2942Z" fill="white"/>
<path d="M40.3349 53.2943L43.0241 62.8097L49.9434 53.2943H52.1979L43.7037 64.8283L41.9156 72.9051L41.7972 73.0984H39.7806L41.5242 64.7843L38.0405 53.2943H40.3349Z" fill="white"/>
<path d="M90.0005 71.2418H92.6874C92.2035 71.912 91.5754 72.5046 90.9872 73.0937H87.391L91.5039 54.064C91.6363 54.035 91.6645 54.1056 91.7383 54.1797C92.2293 54.6739 92.6511 55.248 93.1667 55.7214L93.2464 56.0293L90.0005 71.2418Z" fill="white"/>
<path d="M62.1627 50.2779L64.0269 40.9905C65.3557 41.1271 68.8195 40.4326 69.0433 42.3482C69.1757 43.4871 68.8183 44.7615 67.7544 45.3425C67.6454 45.4027 67.2857 45.3958 67.513 45.5636C67.5552 45.596 67.6876 45.6064 67.7755 45.6793C67.9296 45.7983 68.0534 45.9512 68.1371 46.1258C68.2207 46.3005 68.2618 46.492 68.2571 46.6852C68.2746 47.7604 67.6337 49.161 67.622 50.2791H65.4835L66.1209 46.9167C66.1209 46.8009 66.0037 46.4166 65.9405 46.3518C65.8233 46.2361 65.146 46.1099 65.0206 46.1898C64.8413 46.3055 64.3492 49.7999 64.2191 50.2791L62.1627 50.2779ZM65.3265 44.7858C65.8584 44.7985 66.4631 44.6851 66.7396 44.1943C66.9376 43.8471 67.104 42.8794 66.7033 42.6271C66.5592 42.5357 65.8373 42.4871 65.7331 42.5519C65.6288 42.6167 65.3487 44.5103 65.3253 44.7858H65.3265Z" fill="white"/>
<path d="M15.3432 50.2779L17.1559 41.0275C18.5867 41.0889 21.8665 40.4268 22.1372 42.4327C22.2543 43.3355 21.5114 46.7025 21.2501 47.7396C20.9982 48.7327 20.6396 49.6622 19.5885 50.0603C19.3249 50.1488 19.0561 50.2215 18.7835 50.2779H15.3432ZM17.6364 48.8068C18.4941 48.786 18.9019 48.6042 19.1597 47.7871C19.4327 46.9317 19.9506 44.383 20.0045 43.5045C20.0608 42.5959 19.6753 42.4628 18.8199 42.5403L17.6364 48.8068Z" fill="white"/>
<path d="M31.6977 40.9396C33.5936 40.7382 35.0513 41.1305 34.8673 43.2672C34.7712 44.383 33.9416 48.5718 33.4073 49.4203C32.7652 50.44 31.2875 50.4735 30.1802 50.3462C28.678 50.1749 28.3628 49.264 28.4811 47.9283C28.5749 46.8796 29.36 42.9431 29.8017 42.1028C30.1908 41.3655 30.8774 41.0275 31.6977 40.9396ZM32.007 42.4778C31.7609 42.5484 31.5852 42.9408 31.5149 43.1572C31.1727 44.2233 30.6712 46.7361 30.5493 47.86C30.5165 48.1656 30.4029 48.7269 30.8059 48.8033C31.4118 48.9191 31.6121 48.7582 31.7973 48.2246C32.1617 47.1736 32.6761 44.4617 32.7991 43.3262C32.8659 42.7093 32.798 42.2533 32.007 42.4778Z" fill="white"/>
<path d="M81.0646 44.2441C81.197 43.6098 81.7501 42.31 80.6252 42.4604C80.0756 42.5345 80.0112 43.1839 79.9022 43.6098C79.6796 44.4883 78.9062 47.7593 79.0046 48.463C79.0327 48.6598 79.0679 48.764 79.287 48.8103C80.4588 49.0302 80.3744 47.8577 80.5912 47.0741L79.8776 47.0336L80.194 45.4872H82.8891C82.4578 47.2569 82.5961 50.124 80.16 50.3601C78.0438 50.565 76.7618 50.1518 76.9681 47.8565C77.0852 46.6157 77.6629 43.9293 78.0637 42.7394C78.2734 42.1155 78.5687 41.5241 79.1968 41.2185C80.058 40.7995 82.0911 40.7682 82.8504 41.3863C83.6097 42.0044 83.4292 43.4697 83.0847 44.2499L81.0646 44.2441Z" fill="white"/>
<path d="M28.3136 44.2441H26.2571C26.2923 43.8737 26.6602 42.6132 26.2021 42.4801C25.4474 42.2602 25.2529 42.8123 25.0936 43.3771C24.7784 44.4987 24.1995 47.0521 24.1304 48.1621C24.0929 48.7547 24.2604 48.8936 24.8768 48.8114C25.6326 48.7096 25.5049 47.2049 25.8224 46.7187H27.7195C27.7758 46.7187 27.8086 46.8125 27.8074 46.8785C27.8074 47.3611 27.293 49.0174 27.0036 49.4249C26.2806 50.4318 25.0045 50.4608 23.8456 50.3566C22.0645 50.198 21.9567 49.0244 22.1665 47.5556C22.3376 46.3588 22.675 44.8078 22.9738 43.6272C23.5152 41.494 24.2921 40.7034 26.6907 40.9222C28.8022 41.1108 28.6874 42.6051 28.3136 44.2441Z" fill="white"/>
<path d="M106.293 43.7024C106.39 43.1711 106.599 42.6144 105.858 42.6132C105.468 42.6132 105.283 42.8112 105.272 43.1977C105.256 44.2395 107.257 45.3726 107.454 46.7002C107.688 48.2605 107.124 50.1379 105.291 50.3462C102.898 50.6194 101.708 49.7177 102.611 47.3368H104.39C104.273 47.7222 103.992 48.5822 104.594 48.6459C105.337 48.7246 105.55 48.11 105.381 47.4884C105.251 47.0116 104.092 45.9652 103.741 45.4583C102.46 43.6063 103.294 41.0738 105.776 40.9164C107.738 40.7925 108.908 41.759 108.148 43.7001L106.293 43.7024Z" fill="white"/>
<path d="M41.7573 40.9951L41.9155 50.2779H39.8602C39.8298 50.1946 39.9387 50.1078 39.9387 50.0846V48.8114H38.5514C38.3115 49.2754 38.1384 49.7702 38.037 50.2814H35.984L39.7806 40.9986L41.7573 40.9951ZM40.0137 47.3391C40.1602 47.2003 40.07 44.7488 40.1754 44.3298L39.0705 47.2234C39.0494 47.3808 39.0705 47.3218 39.1876 47.3391C39.3048 47.3565 39.9845 47.3623 40.0137 47.3391Z" fill="white"/>
<path d="M73.8675 40.9951L73.946 50.2779H71.9692C71.9692 49.9562 71.9599 49.6332 71.9692 49.3115C71.9692 49.2131 72.1321 48.808 71.9294 48.808H70.5408L70.0721 50.2779H68.0942L71.8111 40.9951H73.8675ZM72.1274 47.3391L72.1673 44.3217L71.0974 47.2998L72.1274 47.3391Z" fill="white"/>
<path d="M88.1034 40.9951L88.1819 50.2779H86.2051L86.2836 48.808H84.7814C84.6798 49.3192 84.5067 49.8139 84.267 50.2779H82.3301L86.1653 40.9951H88.1034ZM86.3598 47.3391L86.3985 44.3217L85.3298 47.2998L86.3598 47.3391Z" fill="white"/>
<path d="M50.6207 50.2779L52.485 40.9905C54.9457 41.1757 58.0216 40.1131 57.4064 43.7302C57.0232 45.9965 55.6241 46.6146 53.3919 46.4953L52.6724 50.2779H50.6207ZM53.7048 45.0173C54.0106 45.0103 54.3246 45.0601 54.6199 44.9455C55.2621 44.6978 55.7308 42.9778 55.1601 42.6306C55.016 42.5403 54.2579 42.494 54.1876 42.553C54.0844 42.6306 53.8091 44.7082 53.7001 45.0173H53.7048Z" fill="white"/>
<path d="M63.0321 40.9951L62.7122 42.7695C62.3677 42.8332 60.6804 42.6676 60.5398 42.8494C60.3675 43.0716 60.2597 44.4281 60.1882 44.7846H62.1627L61.851 46.2974L59.791 46.3322L59.3949 48.4966H61.6084L61.292 50.2768H57.0221L58.8407 40.994L63.0321 40.9951Z" fill="white"/>
<path d="M2.05646 50.2779L3.91138 41.0692C4.03559 40.8955 5.6831 41.046 6.0112 40.9939L6.60412 45.405L8.93712 40.9951H10.9936L9.17382 50.2779H7.11735L7.98681 45.7916L6.72364 47.9966L5.42297 48.0359L5.02222 45.7187L4.11292 50.2779H2.05646Z" fill="white"/>
<path d="M102.892 40.9951C102.979 41.0808 102.629 42.5287 102.565 42.7637L100.456 42.7845C100.428 43.2799 100.051 44.1735 100.065 44.6099C100.065 44.6828 100.12 44.7846 100.168 44.7846H102.106L101.782 46.3241L99.7415 46.3403L99.3337 48.4966H101.469L101.152 50.2768H96.9609L98.8193 40.994L102.892 40.9951Z" fill="white"/>
<path d="M16.2127 40.9951L15.819 42.7406L13.6863 42.7822C13.6453 43.3355 13.3114 44.0983 13.3149 44.6272C13.3149 44.6909 13.3442 44.7846 13.4016 44.7846H15.3397L15.0151 46.3241L12.9751 46.3403L12.5743 48.4966H14.7105L14.3941 50.2768H10.2026L12.0212 40.994L16.2127 40.9951Z" fill="white"/>
<path d="M88.8206 50.2779L90.6403 40.9951H92.7694L93.3624 45.4062L95.6954 40.9963H97.7518L95.9321 50.2791H93.8768L94.7451 45.7916C94.3935 46.0486 93.6787 47.897 93.4643 48.0186C93.4092 48.051 92.3148 48.0602 92.1753 48.0383L91.7805 45.7187L90.8712 50.2837L88.8206 50.2779Z" fill="white"/>
<path d="M42.5483 50.2779L44.3751 41.0021H46.4152L46.9788 45.4004L49.4688 40.9916H51.407L49.5872 50.2745H47.6104L48.4002 45.8645C48.0065 46.1585 47.4417 47.8114 47.1358 47.9919C47.0374 48.0487 45.943 48.0591 45.8809 48.0197C45.7133 47.3831 45.6582 46.713 45.5516 46.0601C45.5352 45.9652 45.6243 45.7222 45.4344 45.787L44.5275 50.2779H42.5483Z" fill="white"/>
</svg>
